<mxfile host="app.diagrams.net" agent="Mozilla/5.0 (X11; Linux x86_64) AppleWebKit/537.36 (KHTML, like Gecko) Chrome/131.0.0.0 Safari/537.36" version="27.1.5">
  <diagram name="Page-1" id="EDruNcVgQrR1iOMbviFJ">
    <mxGraphModel dx="1142" dy="645" grid="0" gridSize="5" guides="1" tooltips="1" connect="1" arrows="1" fold="1" page="1" pageScale="1" pageWidth="850" pageHeight="1100" math="0" shadow="0">
      <root>
        <mxCell id="0" />
        <mxCell id="1" parent="0" />
        <mxCell id="CMrMNQIp8Kjfouo7Vvd6-123" value="" style="group;fillColor=none;container=0;" parent="1" vertex="1" connectable="0">
          <mxGeometry y="40" width="851" height="537" as="geometry" />
        </mxCell>
        <mxCell id="CMrMNQIp8Kjfouo7Vvd6-51" value="Управление обслуживанием в сети отделений" style="rounded=0;whiteSpace=wrap;html=1;" parent="1" vertex="1">
          <mxGeometry x="11" y="230" width="108.5" height="60" as="geometry" />
        </mxCell>
        <mxCell id="CMrMNQIp8Kjfouo7Vvd6-52" value="Управление обслуживанием депозитных продуктов" style="rounded=0;whiteSpace=wrap;html=1;" parent="1" vertex="1">
          <mxGeometry x="11" y="290" width="108.5" height="60" as="geometry" />
        </mxCell>
        <mxCell id="CMrMNQIp8Kjfouo7Vvd6-53" value="Управление обслуживанием кредитных продуктов" style="rounded=0;whiteSpace=wrap;html=1;" parent="1" vertex="1">
          <mxGeometry x="11" y="350" width="108.5" height="60" as="geometry" />
        </mxCell>
        <mxCell id="CMrMNQIp8Kjfouo7Vvd6-54" value="Call-центр" style="rounded=0;whiteSpace=wrap;html=1;" parent="1" vertex="1">
          <mxGeometry x="11" y="110" width="109" height="60" as="geometry" />
        </mxCell>
        <mxCell id="CMrMNQIp8Kjfouo7Vvd6-55" value="Партнерский call-центр" style="rounded=0;whiteSpace=wrap;html=1;" parent="1" vertex="1">
          <mxGeometry x="11" y="170" width="109" height="60" as="geometry" />
        </mxCell>
        <mxCell id="CMrMNQIp8Kjfouo7Vvd6-56" value="Команда цифровой трансформации" style="rounded=0;whiteSpace=wrap;html=1;" parent="1" vertex="1">
          <mxGeometry x="11" y="410" width="109" height="60" as="geometry" />
        </mxCell>
        <mxCell id="CMrMNQIp8Kjfouo7Vvd6-57" value="Управление ИТ" style="rounded=0;whiteSpace=wrap;html=1;" parent="1" vertex="1">
          <mxGeometry x="11" y="470" width="109" height="60" as="geometry" />
        </mxCell>
        <mxCell id="CMrMNQIp8Kjfouo7Vvd6-58" value="&lt;div&gt;&lt;span style=&quot;background-color: transparent; color: light-dark(rgb(0, 0, 0), rgb(255, 255, 255));&quot;&gt;Подразделение&lt;/span&gt;&lt;/div&gt;" style="rounded=0;whiteSpace=wrap;html=1;" parent="1" vertex="1">
          <mxGeometry x="11" y="40" width="109" height="70" as="geometry" />
        </mxCell>
        <mxCell id="CMrMNQIp8Kjfouo7Vvd6-59" value="" style="rounded=0;whiteSpace=wrap;html=1;" parent="1" vertex="1">
          <mxGeometry x="119.5" y="230" width="120" height="60" as="geometry" />
        </mxCell>
        <mxCell id="CMrMNQIp8Kjfouo7Vvd6-60" value="" style="rounded=0;whiteSpace=wrap;html=1;" parent="1" vertex="1">
          <mxGeometry x="119.5" y="290" width="120" height="60" as="geometry" />
        </mxCell>
        <mxCell id="CMrMNQIp8Kjfouo7Vvd6-61" value="" style="rounded=0;whiteSpace=wrap;html=1;" parent="1" vertex="1">
          <mxGeometry x="119.5" y="350" width="120" height="60" as="geometry" />
        </mxCell>
        <mxCell id="CMrMNQIp8Kjfouo7Vvd6-62" value="" style="rounded=0;whiteSpace=wrap;html=1;strokeColor=none;" parent="1" vertex="1">
          <mxGeometry x="120" y="110" width="120" height="60" as="geometry" />
        </mxCell>
        <mxCell id="CMrMNQIp8Kjfouo7Vvd6-63" value="" style="rounded=0;whiteSpace=wrap;html=1;strokeColor=none;" parent="1" vertex="1">
          <mxGeometry x="120" y="170" width="120" height="60" as="geometry" />
        </mxCell>
        <mxCell id="CMrMNQIp8Kjfouo7Vvd6-75" value="" style="rounded=0;whiteSpace=wrap;html=1;" parent="1" vertex="1">
          <mxGeometry x="239.5" y="230" width="120" height="60" as="geometry" />
        </mxCell>
        <mxCell id="CMrMNQIp8Kjfouo7Vvd6-76" value="" style="rounded=0;whiteSpace=wrap;html=1;" parent="1" vertex="1">
          <mxGeometry x="239.5" y="290" width="120" height="60" as="geometry" />
        </mxCell>
        <mxCell id="CMrMNQIp8Kjfouo7Vvd6-77" value="" style="rounded=0;whiteSpace=wrap;html=1;" parent="1" vertex="1">
          <mxGeometry x="239.5" y="350" width="120" height="60" as="geometry" />
        </mxCell>
        <mxCell id="CMrMNQIp8Kjfouo7Vvd6-78" value="" style="rounded=0;whiteSpace=wrap;html=1;" parent="1" vertex="1">
          <mxGeometry x="240" y="110" width="120" height="60" as="geometry" />
        </mxCell>
        <mxCell id="CMrMNQIp8Kjfouo7Vvd6-79" value="" style="rounded=0;whiteSpace=wrap;html=1;" parent="1" vertex="1">
          <mxGeometry x="240" y="170" width="120" height="60" as="geometry" />
        </mxCell>
        <mxCell id="CMrMNQIp8Kjfouo7Vvd6-83" value="&lt;div&gt;&lt;br&gt;&lt;/div&gt;&lt;div&gt;&lt;br&gt;&lt;/div&gt;" style="rounded=0;whiteSpace=wrap;html=1;" parent="1" vertex="1">
          <mxGeometry x="359.5" y="230" width="120" height="60" as="geometry" />
        </mxCell>
        <mxCell id="CMrMNQIp8Kjfouo7Vvd6-84" value="" style="rounded=0;whiteSpace=wrap;html=1;" parent="1" vertex="1">
          <mxGeometry x="359.5" y="290" width="120" height="60" as="geometry" />
        </mxCell>
        <mxCell id="CMrMNQIp8Kjfouo7Vvd6-85" value="" style="rounded=0;whiteSpace=wrap;html=1;" parent="1" vertex="1">
          <mxGeometry x="359.5" y="350" width="120" height="60" as="geometry" />
        </mxCell>
        <mxCell id="CMrMNQIp8Kjfouo7Vvd6-86" value="" style="rounded=0;whiteSpace=wrap;html=1;" parent="1" vertex="1">
          <mxGeometry x="360" y="110" width="120" height="60" as="geometry" />
        </mxCell>
        <mxCell id="CMrMNQIp8Kjfouo7Vvd6-87" value="" style="rounded=0;whiteSpace=wrap;html=1;" parent="1" vertex="1">
          <mxGeometry x="360" y="170" width="120" height="60" as="geometry" />
        </mxCell>
        <mxCell id="CMrMNQIp8Kjfouo7Vvd6-91" value="" style="rounded=0;whiteSpace=wrap;html=1;" parent="1" vertex="1">
          <mxGeometry x="479.5" y="230" width="120" height="60" as="geometry" />
        </mxCell>
        <mxCell id="CMrMNQIp8Kjfouo7Vvd6-92" value="" style="rounded=0;whiteSpace=wrap;html=1;" parent="1" vertex="1">
          <mxGeometry x="479.5" y="290" width="120" height="60" as="geometry" />
        </mxCell>
        <mxCell id="CMrMNQIp8Kjfouo7Vvd6-93" value="" style="rounded=0;whiteSpace=wrap;html=1;" parent="1" vertex="1">
          <mxGeometry x="479.5" y="350" width="120" height="60" as="geometry" />
        </mxCell>
        <mxCell id="CMrMNQIp8Kjfouo7Vvd6-94" value="" style="rounded=0;whiteSpace=wrap;html=1;" parent="1" vertex="1">
          <mxGeometry x="480" y="110" width="120" height="60" as="geometry" />
        </mxCell>
        <mxCell id="CMrMNQIp8Kjfouo7Vvd6-95" value="" style="rounded=0;whiteSpace=wrap;html=1;" parent="1" vertex="1">
          <mxGeometry x="480" y="170" width="120" height="60" as="geometry" />
        </mxCell>
        <mxCell id="CMrMNQIp8Kjfouo7Vvd6-99" value="" style="rounded=0;whiteSpace=wrap;html=1;" parent="1" vertex="1">
          <mxGeometry x="599.5" y="230" width="120" height="60" as="geometry" />
        </mxCell>
        <mxCell id="CMrMNQIp8Kjfouo7Vvd6-100" value="" style="rounded=0;whiteSpace=wrap;html=1;" parent="1" vertex="1">
          <mxGeometry x="599.5" y="290" width="120" height="60" as="geometry" />
        </mxCell>
        <mxCell id="CMrMNQIp8Kjfouo7Vvd6-101" value="" style="rounded=0;whiteSpace=wrap;html=1;" parent="1" vertex="1">
          <mxGeometry x="599.5" y="350" width="120" height="60" as="geometry" />
        </mxCell>
        <mxCell id="CMrMNQIp8Kjfouo7Vvd6-102" value="" style="rounded=0;whiteSpace=wrap;html=1;" parent="1" vertex="1">
          <mxGeometry x="600" y="110" width="120" height="60" as="geometry" />
        </mxCell>
        <mxCell id="CMrMNQIp8Kjfouo7Vvd6-103" value="" style="rounded=0;whiteSpace=wrap;html=1;" parent="1" vertex="1">
          <mxGeometry x="600" y="170" width="120" height="60" as="geometry" />
        </mxCell>
        <mxCell id="CMrMNQIp8Kjfouo7Vvd6-107" value="" style="rounded=0;whiteSpace=wrap;html=1;" parent="1" vertex="1">
          <mxGeometry x="719.5" y="231" width="120" height="60" as="geometry" />
        </mxCell>
        <mxCell id="CMrMNQIp8Kjfouo7Vvd6-108" value="" style="rounded=0;whiteSpace=wrap;html=1;" parent="1" vertex="1">
          <mxGeometry x="719.5" y="290" width="120" height="60" as="geometry" />
        </mxCell>
        <mxCell id="CMrMNQIp8Kjfouo7Vvd6-109" value="" style="rounded=0;whiteSpace=wrap;html=1;" parent="1" vertex="1">
          <mxGeometry x="719.5" y="350" width="120" height="60" as="geometry" />
        </mxCell>
        <mxCell id="CMrMNQIp8Kjfouo7Vvd6-110" value="" style="rounded=0;whiteSpace=wrap;html=1;" parent="1" vertex="1">
          <mxGeometry x="720" y="110" width="120" height="60" as="geometry" />
        </mxCell>
        <mxCell id="CMrMNQIp8Kjfouo7Vvd6-111" value="" style="rounded=0;whiteSpace=wrap;html=1;" parent="1" vertex="1">
          <mxGeometry x="720" y="170" width="120" height="60" as="geometry" />
        </mxCell>
        <mxCell id="CMrMNQIp8Kjfouo7Vvd6-115" value="Бизнес-функция" style="rounded=0;whiteSpace=wrap;html=1;" parent="1" vertex="1">
          <mxGeometry x="119" y="40" width="721" height="20" as="geometry" />
        </mxCell>
        <mxCell id="CMrMNQIp8Kjfouo7Vvd6-116" value="&lt;div&gt;&lt;span style=&quot;background-color: transparent; color: light-dark(rgb(0, 0, 0), rgb(255, 255, 255));&quot;&gt;Digital оповещения клиентов&lt;/span&gt;&lt;/div&gt;" style="rounded=0;whiteSpace=wrap;html=1;" parent="1" vertex="1">
          <mxGeometry x="120" y="60" width="120" height="50" as="geometry" />
        </mxCell>
        <mxCell id="CMrMNQIp8Kjfouo7Vvd6-117" value="&lt;div&gt;&lt;span style=&quot;background-color: transparent; color: light-dark(rgb(0, 0, 0), rgb(255, 255, 255));&quot;&gt;Продажи через call-центр&lt;/span&gt;&lt;/div&gt;" style="rounded=0;whiteSpace=wrap;html=1;" parent="1" vertex="1">
          <mxGeometry x="240" y="60" width="120" height="50" as="geometry" />
        </mxCell>
        <mxCell id="CMrMNQIp8Kjfouo7Vvd6-118" value="Продажи в сети отделений" style="rounded=0;whiteSpace=wrap;html=1;" parent="1" vertex="1">
          <mxGeometry x="360" y="60" width="120" height="50" as="geometry" />
        </mxCell>
        <mxCell id="CMrMNQIp8Kjfouo7Vvd6-119" value="Обслуживание депозитарных процессов" style="rounded=0;whiteSpace=wrap;html=1;" parent="1" vertex="1">
          <mxGeometry x="480" y="60" width="120" height="50" as="geometry" />
        </mxCell>
        <mxCell id="CMrMNQIp8Kjfouo7Vvd6-121" value="Управление договорами" style="rounded=0;whiteSpace=wrap;html=1;" parent="1" vertex="1">
          <mxGeometry x="720" y="60" width="120" height="50" as="geometry" />
        </mxCell>
        <mxCell id="CMrMNQIp8Kjfouo7Vvd6-122" value="Обслуживание кредитных процессов" style="rounded=0;whiteSpace=wrap;html=1;" parent="1" vertex="1">
          <mxGeometry x="600" y="60" width="120" height="50" as="geometry" />
        </mxCell>
        <mxCell id="CMrMNQIp8Kjfouo7Vvd6-274" value="SMS" style="rounded=1;whiteSpace=wrap;html=1;fillColor=light-dark(#60A917,#FFFF00);fontColor=#ffffff;strokeColor=#2D7600;" parent="1" vertex="1">
          <mxGeometry x="125" y="293" width="109" height="54" as="geometry" />
        </mxCell>
        <mxCell id="CMrMNQIp8Kjfouo7Vvd6-335" value="Call-центр" style="rounded=1;whiteSpace=wrap;html=1;fillColor=#1ba1e2;fontColor=#ffffff;strokeColor=#006EAF;" parent="1" vertex="1">
          <mxGeometry x="245.5" y="116" width="49.5" height="48" as="geometry" />
        </mxCell>
        <mxCell id="CMrMNQIp8Kjfouo7Vvd6-336" value="&lt;font style=&quot;font-size: 8px;&quot;&gt;Партнерский&amp;nbsp;&lt;/font&gt;&lt;div&gt;&lt;font style=&quot;font-size: 8px;&quot;&gt;Call-центр&lt;/font&gt;&lt;/div&gt;" style="rounded=1;whiteSpace=wrap;html=1;fillColor=light-dark(#DAE8FC,#3333FF);strokeColor=#6c8ebf;" parent="1" vertex="1">
          <mxGeometry x="245.5" y="176" width="50.5" height="48" as="geometry" />
        </mxCell>
        <mxCell id="CMrMNQIp8Kjfouo7Vvd6-417" value="АБС" style="rounded=1;whiteSpace=wrap;html=1;fillColor=#cce5ff;strokeColor=#36393d;" parent="1" vertex="1">
          <mxGeometry x="722.5" y="235" width="56" height="169" as="geometry" />
        </mxCell>
        <mxCell id="CMrMNQIp8Kjfouo7Vvd6-419" value="web сайт" style="rounded=1;whiteSpace=wrap;html=1;fillColor=#76608a;strokeColor=#432D57;fontColor=#ffffff;" parent="1" vertex="1">
          <mxGeometry x="780.5" y="234.5" width="56" height="169" as="geometry" />
        </mxCell>
        <mxCell id="CMrMNQIp8Kjfouo7Vvd6-420" value="АБС" style="rounded=1;whiteSpace=wrap;html=1;fillColor=#dae8fc;strokeColor=#6c8ebf;gradientColor=none;" parent="1" vertex="1">
          <mxGeometry x="365" y="234.5" width="109" height="48" as="geometry" />
        </mxCell>
        <mxCell id="CMrMNQIp8Kjfouo7Vvd6-421" value="АБС" style="rounded=1;whiteSpace=wrap;html=1;fillColor=#cce5ff;strokeColor=#36393d;" parent="1" vertex="1">
          <mxGeometry x="485" y="295" width="109" height="15" as="geometry" />
        </mxCell>
        <mxCell id="CMrMNQIp8Kjfouo7Vvd6-488" value="excel" style="rounded=1;whiteSpace=wrap;html=1;fillColor=light-dark(#D80073,#CCFFE6);fontColor=#ffffff;strokeColor=light-dark(#A50040,#333333);" parent="1" vertex="1">
          <mxGeometry x="485" y="312.5" width="109" height="15" as="geometry" />
        </mxCell>
        <mxCell id="CMrMNQIp8Kjfouo7Vvd6-489" value="АБС" style="rounded=1;whiteSpace=wrap;html=1;fillColor=#cce5ff;strokeColor=#36393d;" parent="1" vertex="1">
          <mxGeometry x="605" y="355" width="109" height="23.75" as="geometry" />
        </mxCell>
        <mxCell id="CMrMNQIp8Kjfouo7Vvd6-490" value="excel" style="rounded=1;whiteSpace=wrap;html=1;fillColor=light-dark(#D80073,#CCFFE6);fontColor=#ffffff;strokeColor=light-dark(#A50040,#333333);" parent="1" vertex="1">
          <mxGeometry x="605" y="381.25" width="109" height="23.75" as="geometry" />
        </mxCell>
        <mxCell id="CMrMNQIp8Kjfouo7Vvd6-491" value="email" style="rounded=1;whiteSpace=wrap;html=1;fillColor=light-dark(#D80073,#CCFFE6);fontColor=#ffffff;strokeColor=light-dark(#A50040,#333333);" parent="1" vertex="1">
          <mxGeometry x="485" y="330" width="109" height="15" as="geometry" />
        </mxCell>
        <mxCell id="CMrMNQIp8Kjfouo7Vvd6-64" value="Подразделения поддержки бизнеса" style="rounded=0;whiteSpace=wrap;html=1;fillColor=light-dark(#333333,#4D4D4D);fillStyle=cross-hatch;strokeWidth=1;gradientColor=none;strokeColor=default;fontStyle=1" parent="1" vertex="1">
          <mxGeometry x="120" y="410" width="720" height="120" as="geometry" />
        </mxCell>
        <mxCell id="EcoSlg7VXHgF6z88Q2rA-3" value="АБС" style="rounded=1;whiteSpace=wrap;html=1;fillColor=#cce5ff;strokeColor=#36393d;" vertex="1" parent="1">
          <mxGeometry x="300" y="113" width="56" height="112" as="geometry" />
        </mxCell>
      </root>
    </mxGraphModel>
  </diagram>
</mxfile>
